<mxfile host="app.diagrams.net" modified="2024-07-01T18:43:16.494Z" agent="Mozilla/5.0 (Windows NT 10.0; Win64; x64) AppleWebKit/537.36 (KHTML, like Gecko) Chrome/124.0.0.0 YaBrowser/24.6.0.0 Safari/537.36" etag="PitgrQlUxd9ogcF5k0LY" version="24.6.4" type="device">
  <diagram name="Страница — 1" id="J06ceZAatoIPOJboitT3">
    <mxGraphModel dx="1155" dy="1837" grid="1" gridSize="10" guides="1" tooltips="1" connect="1" arrows="1" fold="1" page="1" pageScale="1" pageWidth="827" pageHeight="1169" math="0" shadow="0">
      <root>
        <mxCell id="0" />
        <mxCell id="1" parent="0" />
        <mxCell id="BwnWWf9CsQSykDQ6EbLc-1" value="&lt;span style=&quot;font-size: 18px;&quot;&gt;Личный кабинет пользователя аптеки&lt;/span&gt;" style="swimlane;whiteSpace=wrap;html=1;fontStyle=0" parent="1" vertex="1">
          <mxGeometry x="180" y="-20" width="660" height="640" as="geometry" />
        </mxCell>
        <mxCell id="XQG01RER6FyWzIQi6bfX-72" style="rounded=0;orthogonalLoop=1;jettySize=auto;html=1;exitX=1;exitY=0;exitDx=0;exitDy=0;entryX=0;entryY=0;entryDx=0;entryDy=0;dashed=1;dashPattern=8 8;" edge="1" parent="BwnWWf9CsQSykDQ6EbLc-1" source="XQG01RER6FyWzIQi6bfX-65" target="XQG01RER6FyWzIQi6bfX-67">
          <mxGeometry relative="1" as="geometry" />
        </mxCell>
        <mxCell id="XQG01RER6FyWzIQi6bfX-73" value="extend" style="edgeLabel;html=1;align=center;verticalAlign=middle;resizable=0;points=[];" vertex="1" connectable="0" parent="XQG01RER6FyWzIQi6bfX-72">
          <mxGeometry x="-0.0175" y="-2" relative="1" as="geometry">
            <mxPoint as="offset" />
          </mxGeometry>
        </mxCell>
        <mxCell id="XQG01RER6FyWzIQi6bfX-78" style="rounded=0;orthogonalLoop=1;jettySize=auto;html=1;exitX=0.34;exitY=0.971;exitDx=0;exitDy=0;entryX=0.346;entryY=0;entryDx=0;entryDy=0;dashed=1;dashPattern=8 8;exitPerimeter=0;entryPerimeter=0;" edge="1" parent="BwnWWf9CsQSykDQ6EbLc-1" source="XQG01RER6FyWzIQi6bfX-65" target="XQG01RER6FyWzIQi6bfX-68">
          <mxGeometry relative="1" as="geometry">
            <mxPoint x="78.30000000000018" y="119.99999999999999" as="sourcePoint" />
            <mxPoint x="110.06000000000017" y="417.27999999999975" as="targetPoint" />
          </mxGeometry>
        </mxCell>
        <mxCell id="XQG01RER6FyWzIQi6bfX-79" value="extend" style="edgeLabel;html=1;align=center;verticalAlign=middle;resizable=0;points=[];" vertex="1" connectable="0" parent="XQG01RER6FyWzIQi6bfX-78">
          <mxGeometry x="-0.7643" y="1" relative="1" as="geometry">
            <mxPoint x="7" y="174" as="offset" />
          </mxGeometry>
        </mxCell>
        <mxCell id="XQG01RER6FyWzIQi6bfX-80" style="rounded=0;orthogonalLoop=1;jettySize=auto;html=1;exitX=0.708;exitY=0.948;exitDx=0;exitDy=0;entryX=0.5;entryY=0;entryDx=0;entryDy=0;dashed=1;dashPattern=8 8;exitPerimeter=0;" edge="1" parent="BwnWWf9CsQSykDQ6EbLc-1" source="XQG01RER6FyWzIQi6bfX-65" target="XQG01RER6FyWzIQi6bfX-69">
          <mxGeometry relative="1" as="geometry" />
        </mxCell>
        <mxCell id="XQG01RER6FyWzIQi6bfX-81" value="extend" style="edgeLabel;html=1;align=center;verticalAlign=middle;resizable=0;points=[];" vertex="1" connectable="0" parent="XQG01RER6FyWzIQi6bfX-80">
          <mxGeometry x="-0.28" y="-2" relative="1" as="geometry">
            <mxPoint x="1" as="offset" />
          </mxGeometry>
        </mxCell>
        <mxCell id="XQG01RER6FyWzIQi6bfX-65" value="&amp;nbsp;зайти в личный кабинет" style="ellipse;whiteSpace=wrap;html=1;" vertex="1" parent="BwnWWf9CsQSykDQ6EbLc-1">
          <mxGeometry x="20" y="50" width="120" height="70" as="geometry" />
        </mxCell>
        <mxCell id="XQG01RER6FyWzIQi6bfX-74" style="rounded=0;orthogonalLoop=1;jettySize=auto;html=1;exitX=0;exitY=0.5;exitDx=0;exitDy=0;entryX=1;entryY=0.5;entryDx=0;entryDy=0;dashed=1;dashPattern=8 8;" edge="1" parent="BwnWWf9CsQSykDQ6EbLc-1" source="XQG01RER6FyWzIQi6bfX-67" target="XQG01RER6FyWzIQi6bfX-65">
          <mxGeometry relative="1" as="geometry" />
        </mxCell>
        <mxCell id="XQG01RER6FyWzIQi6bfX-75" value="include" style="edgeLabel;html=1;align=center;verticalAlign=middle;resizable=0;points=[];" vertex="1" connectable="0" parent="XQG01RER6FyWzIQi6bfX-74">
          <mxGeometry x="-0.1155" y="3" relative="1" as="geometry">
            <mxPoint as="offset" />
          </mxGeometry>
        </mxCell>
        <mxCell id="XQG01RER6FyWzIQi6bfX-67" value="перейти на страницу &quot;настройки пользователя&quot;&amp;nbsp;" style="ellipse;whiteSpace=wrap;html=1;" vertex="1" parent="BwnWWf9CsQSykDQ6EbLc-1">
          <mxGeometry x="310" y="90" width="130" height="80" as="geometry" />
        </mxCell>
        <mxCell id="XQG01RER6FyWzIQi6bfX-68" value="перейти на страницу &quot;корзина&quot;&amp;nbsp;" style="ellipse;whiteSpace=wrap;html=1;" vertex="1" parent="BwnWWf9CsQSykDQ6EbLc-1">
          <mxGeometry x="25" y="440" width="130" height="80" as="geometry" />
        </mxCell>
        <mxCell id="XQG01RER6FyWzIQi6bfX-69" value="перейти на страницу &quot;персональные предложения&quot;&amp;nbsp;" style="ellipse;whiteSpace=wrap;html=1;" vertex="1" parent="BwnWWf9CsQSykDQ6EbLc-1">
          <mxGeometry x="150" y="290" width="130" height="80" as="geometry" />
        </mxCell>
        <mxCell id="XQG01RER6FyWzIQi6bfX-76" style="rounded=0;orthogonalLoop=1;jettySize=auto;html=1;exitX=0;exitY=0;exitDx=0;exitDy=0;entryX=0;entryY=1;entryDx=0;entryDy=0;dashed=1;dashPattern=8 8;" edge="1" parent="BwnWWf9CsQSykDQ6EbLc-1" source="XQG01RER6FyWzIQi6bfX-68" target="XQG01RER6FyWzIQi6bfX-65">
          <mxGeometry relative="1" as="geometry" />
        </mxCell>
        <mxCell id="XQG01RER6FyWzIQi6bfX-77" value="include" style="edgeLabel;html=1;align=center;verticalAlign=middle;resizable=0;points=[];" vertex="1" connectable="0" parent="XQG01RER6FyWzIQi6bfX-76">
          <mxGeometry x="0.3473" y="1" relative="1" as="geometry">
            <mxPoint y="31" as="offset" />
          </mxGeometry>
        </mxCell>
        <mxCell id="XQG01RER6FyWzIQi6bfX-82" style="rounded=0;orthogonalLoop=1;jettySize=auto;html=1;exitX=0;exitY=0;exitDx=0;exitDy=0;entryX=0.5;entryY=1;entryDx=0;entryDy=0;dashed=1;dashPattern=8 8;" edge="1" parent="BwnWWf9CsQSykDQ6EbLc-1" source="XQG01RER6FyWzIQi6bfX-69" target="XQG01RER6FyWzIQi6bfX-65">
          <mxGeometry relative="1" as="geometry" />
        </mxCell>
        <mxCell id="XQG01RER6FyWzIQi6bfX-83" value="include" style="edgeLabel;html=1;align=center;verticalAlign=middle;resizable=0;points=[];" vertex="1" connectable="0" parent="XQG01RER6FyWzIQi6bfX-82">
          <mxGeometry x="-0.3667" y="3" relative="1" as="geometry">
            <mxPoint as="offset" />
          </mxGeometry>
        </mxCell>
        <mxCell id="XQG01RER6FyWzIQi6bfX-84" value="техническое обслуживание личного кабинета" style="ellipse;whiteSpace=wrap;html=1;" vertex="1" parent="BwnWWf9CsQSykDQ6EbLc-1">
          <mxGeometry x="470" y="290" width="120" height="80" as="geometry" />
        </mxCell>
        <mxCell id="XQG01RER6FyWzIQi6bfX-88" value="вход в систему" style="ellipse;whiteSpace=wrap;html=1;" vertex="1" parent="BwnWWf9CsQSykDQ6EbLc-1">
          <mxGeometry x="470" y="150" width="120" height="80" as="geometry" />
        </mxCell>
        <mxCell id="XQG01RER6FyWzIQi6bfX-113" style="rounded=0;orthogonalLoop=1;jettySize=auto;html=1;exitX=0.5;exitY=0;exitDx=0;exitDy=0;entryX=1;entryY=1;entryDx=0;entryDy=0;dashed=1;dashPattern=8 8;" edge="1" parent="BwnWWf9CsQSykDQ6EbLc-1" source="XQG01RER6FyWzIQi6bfX-108" target="XQG01RER6FyWzIQi6bfX-65">
          <mxGeometry relative="1" as="geometry" />
        </mxCell>
        <mxCell id="XQG01RER6FyWzIQi6bfX-115" value="include" style="edgeLabel;html=1;align=center;verticalAlign=middle;resizable=0;points=[];" vertex="1" connectable="0" parent="XQG01RER6FyWzIQi6bfX-113">
          <mxGeometry x="-0.5024" y="-1" relative="1" as="geometry">
            <mxPoint as="offset" />
          </mxGeometry>
        </mxCell>
        <mxCell id="XQG01RER6FyWzIQi6bfX-108" value="управление данными пользователя" style="ellipse;whiteSpace=wrap;html=1;" vertex="1" parent="BwnWWf9CsQSykDQ6EbLc-1">
          <mxGeometry x="350" y="430" width="120" height="80" as="geometry" />
        </mxCell>
        <mxCell id="XQG01RER6FyWzIQi6bfX-85" style="rounded=0;orthogonalLoop=1;jettySize=auto;html=1;exitX=0.5;exitY=0.5;exitDx=0;exitDy=0;exitPerimeter=0;entryX=0.972;entryY=0.308;entryDx=0;entryDy=0;endArrow=none;endFill=0;entryPerimeter=0;" edge="1" parent="1" source="BwnWWf9CsQSykDQ6EbLc-12" target="XQG01RER6FyWzIQi6bfX-84">
          <mxGeometry relative="1" as="geometry" />
        </mxCell>
        <mxCell id="XQG01RER6FyWzIQi6bfX-109" style="rounded=0;orthogonalLoop=1;jettySize=auto;html=1;exitX=0.5;exitY=0.5;exitDx=0;exitDy=0;exitPerimeter=0;endArrow=none;endFill=0;" edge="1" parent="1" source="BwnWWf9CsQSykDQ6EbLc-12" target="XQG01RER6FyWzIQi6bfX-108">
          <mxGeometry relative="1" as="geometry" />
        </mxCell>
        <mxCell id="XQG01RER6FyWzIQi6bfX-110" style="rounded=0;orthogonalLoop=1;jettySize=auto;html=1;exitX=0.5;exitY=0.5;exitDx=0;exitDy=0;exitPerimeter=0;entryX=1;entryY=0.5;entryDx=0;entryDy=0;endArrow=none;endFill=0;" edge="1" parent="1" source="BwnWWf9CsQSykDQ6EbLc-12" target="XQG01RER6FyWzIQi6bfX-88">
          <mxGeometry relative="1" as="geometry" />
        </mxCell>
        <mxCell id="BwnWWf9CsQSykDQ6EbLc-12" value="администратор" style="shape=umlActor;verticalLabelPosition=bottom;verticalAlign=top;html=1;outlineConnect=0;" parent="1" vertex="1">
          <mxGeometry x="980" y="250" width="30" height="60" as="geometry" />
        </mxCell>
        <mxCell id="XQG01RER6FyWzIQi6bfX-64" style="rounded=0;orthogonalLoop=1;jettySize=auto;html=1;exitX=0.5;exitY=0.5;exitDx=0;exitDy=0;exitPerimeter=0;endArrow=none;endFill=0;entryX=0;entryY=0.5;entryDx=0;entryDy=0;" edge="1" parent="1" source="5FDHfX9XDDH-wRG4uTQl-1" target="XQG01RER6FyWzIQi6bfX-65">
          <mxGeometry relative="1" as="geometry">
            <mxPoint x="280" y="170" as="targetPoint" />
          </mxGeometry>
        </mxCell>
        <mxCell id="XQG01RER6FyWzIQi6bfX-66" style="rounded=0;orthogonalLoop=1;jettySize=auto;html=1;exitX=0.5;exitY=0.5;exitDx=0;exitDy=0;exitPerimeter=0;endArrow=none;endFill=0;entryX=0.5;entryY=1;entryDx=0;entryDy=0;" edge="1" parent="1" source="5FDHfX9XDDH-wRG4uTQl-1" target="XQG01RER6FyWzIQi6bfX-67">
          <mxGeometry relative="1" as="geometry">
            <mxPoint x="280" y="220" as="targetPoint" />
          </mxGeometry>
        </mxCell>
        <mxCell id="XQG01RER6FyWzIQi6bfX-70" style="rounded=0;orthogonalLoop=1;jettySize=auto;html=1;exitX=0.5;exitY=0.5;exitDx=0;exitDy=0;exitPerimeter=0;entryX=0.013;entryY=0.356;entryDx=0;entryDy=0;endArrow=none;endFill=0;entryPerimeter=0;" edge="1" parent="1" source="5FDHfX9XDDH-wRG4uTQl-1" target="XQG01RER6FyWzIQi6bfX-68">
          <mxGeometry relative="1" as="geometry" />
        </mxCell>
        <mxCell id="XQG01RER6FyWzIQi6bfX-71" style="rounded=0;orthogonalLoop=1;jettySize=auto;html=1;exitX=0.5;exitY=0.5;exitDx=0;exitDy=0;exitPerimeter=0;entryX=0;entryY=0.5;entryDx=0;entryDy=0;endArrow=none;endFill=0;" edge="1" parent="1" source="5FDHfX9XDDH-wRG4uTQl-1" target="XQG01RER6FyWzIQi6bfX-69">
          <mxGeometry relative="1" as="geometry" />
        </mxCell>
        <mxCell id="5FDHfX9XDDH-wRG4uTQl-1" value="&lt;div&gt;&amp;nbsp;пользователь&lt;/div&gt;" style="shape=umlActor;verticalLabelPosition=bottom;verticalAlign=top;html=1;outlineConnect=0;" parent="1" vertex="1">
          <mxGeometry x="90" y="180" width="30" height="60" as="geometry" />
        </mxCell>
      </root>
    </mxGraphModel>
  </diagram>
</mxfile>
